<?xml version="1.0" encoding="UTF-8" standalone="no"?>
<svg
   width="488.32941"
   height="277.10797"
   viewBox="0 0 488.32941 277.10797"
   fill="none"
   version="1.1"
   id="svg196"
   sodipodi:docname="Illustration.svg"
   inkscape:version="1.1.2 (0a00cf5339, 2022-02-04)"
   xmlns:inkscape="http://www.inkscape.org/namespaces/inkscape"
   xmlns:sodipodi="http://sodipodi.sourceforge.net/DTD/sodipodi-0.dtd"
   xmlns="http://www.w3.org/2000/svg"
   xmlns:svg="http://www.w3.org/2000/svg">
  <defs
     id="defs200" />
  <sodipodi:namedview
     id="namedview198"
     pagecolor="#ffffff"
     bordercolor="#666666"
     borderopacity="1.0"
     inkscape:pageshadow="2"
     inkscape:pageopacity="0.0"
     inkscape:pagecheckerboard="0"
     showgrid="false"
     inkscape:zoom="2.8237469"
     inkscape:cx="72.952713"
     inkscape:cy="216.91037"
     inkscape:window-width="1366"
     inkscape:window-height="699"
     inkscape:window-x="0"
     inkscape:window-y="32"
     inkscape:window-maximized="1"
     inkscape:current-layer="svg196" />
  <path
     d="m 79.382253,274.30983 -0.7335,-0.441 c 0.2059,-0.342 20.6558,-34.426 23.839797,-42.918 l 0.802,0.301 c -3.212,8.565 -23.065197,41.654 -23.908297,43.058 z"
     fill="#8b9d36"
     id="path2" />
  <path
     d="m 95.958753,213.07883 c 0.8656,2.141 1.5274,4.36 1.9768,6.626 0.459,2.219 0.797,4.462 1.01,6.718 0.22,2.255 0.312,4.522 0.278,6.788 -0.012,2.31 -0.246,4.614 -0.697,6.88 -0.87,-2.14 -1.5335,-4.359 -1.9816,-6.626 -0.4602,-2.219 -0.7959,-4.462 -1.0057,-6.718 -0.2153,-2.256 -0.3067,-4.522 -0.2737,-6.788 0.0142,-2.31 0.2463,-4.614 0.6932,-6.88 z"
     fill="#8b9d36"
     id="path4" />
  <path
     d="m 88.411153,223.39883 c 1.054,1.995 1.913,4.088 2.565,6.248 0.6575,2.111 1.1955,4.258 1.6115,6.43 0.4216,2.171 0.7186,4.365 0.8896,6.57 0.1953,2.248 0.1706,4.51 -0.0735,6.754 -1.0579,-1.994 -1.9185,-4.086 -2.5696,-6.247 -0.6578,-2.111 -1.1943,-4.258 -1.6069,-6.431 -0.4179,-2.172 -0.7134,-4.366 -0.885,-6.57 -0.1941,-2.249 -0.171,-4.51 0.0689,-6.754 z"
     fill="#8b9d36"
     id="path6" />
  <path
     d="m 84.252753,235.41483 c 0.9281,1.854 1.6599,3.8 2.1835,5.807 0.5285,1.954 0.9365,3.939 1.2217,5.944 0.2905,2.004 0.4556,4.024 0.4942,6.048 0.0601,2.073 -0.0996,4.147 -0.4763,6.187 -0.9322,-1.853 -1.6657,-3.799 -2.1881,-5.807 -0.5293,-1.954 -0.9358,-3.94 -1.2171,-5.945 -0.2869,-2.004 -0.4504,-4.024 -0.4896,-6.048 -0.059,-2.073 0.0991,-4.147 0.4717,-6.186 z"
     fill="#8b9d36"
     id="path8" />
  <path
     d="m 79.015853,247.40783 c 0.9319,1.553 1.6751,3.212 2.214,4.942 0.5392,1.67 0.9591,3.377 1.2568,5.107 0.3034,1.729 0.4814,3.477 0.5327,5.232 0.0734,1.811 -0.0721,3.623 -0.4333,5.399 -0.9358,-1.552 -1.6807,-3.211 -2.2186,-4.941 -0.5398,-1.67 -0.9584,-3.377 -1.2526,-5.108 -0.2993,-1.73 -0.4758,-3.478 -0.5281,-5.233 -0.0721,-1.81 0.072,-3.622 0.4291,-5.398 z"
     fill="#8b9d36"
     id="path10" />
  <path
     d="m 74.395153,254.90383 c 0.9507,1.347 1.7354,2.804 2.3373,4.339 0.5898,1.466 1.0807,2.97 1.4694,4.501 0.3852,1.52 0.6815,3.062 0.8875,4.616 0.0961,0.784 0.1842,1.563 0.2427,2.357 0.0303,0.809 0.1165,1.616 0.2582,2.413 -0.1976,-0.106 -0.3875,-0.226 -0.5682,-0.359 l -0.4613,-0.462 c -0.294,-0.315 -0.5637,-0.653 -0.8068,-1.009 -0.4684,-0.687 -0.8831,-1.409 -1.2405,-2.159 -0.6941,-1.459 -1.2395,-2.985 -1.6278,-4.553 -0.3959,-1.555 -0.6524,-3.141 -0.7662,-4.741 -0.1382,-1.653 -0.0454,-3.316 0.2757,-4.943 z"
     fill="#8b9d36"
     id="path12" />
  <path
     d="m 100.44655,236.39983 c 1.553,-1.703 3.3,-3.218 5.206,-4.515 1.836,-1.276 3.759,-2.422 5.754,-3.431 1.992,-1.015 4.054,-1.888 6.17,-2.612 2.173,-0.77 4.429,-1.28 6.722,-1.518 -1.549,1.707 -3.296,3.224 -5.203,4.52 -1.836,1.276 -3.759,2.421 -5.757,3.426 -1.994,1.011 -4.057,1.882 -6.172,2.607 -2.173,0.769 -4.428,1.28 -6.72,1.523 z"
     fill="#8b9d36"
     id="path14" />
  <path
     d="m 95.332753,245.95283 c 1.9858,-1.625 4.1378,-3.034 6.420797,-4.204 2.217,-1.164 4.504,-2.188 6.848,-3.068 2.342,-0.886 4.737,-1.623 7.171,-2.207 2.489,-0.624 5.037,-0.979 7.602,-1.059 -1.983,1.628 -4.135,3.039 -6.419,4.209 -2.216,1.164 -4.504,2.187 -6.85,3.062 -2.343,0.881 -4.738,1.617 -7.173,2.201 -2.488,0.623 -5.035997,0.98 -7.599797,1.066 z"
     fill="#8b9d36"
     id="path16" />
  <path
     d="m 89.313353,256.57083 c 1.7681,-1.57 3.7101,-2.931 5.788,-4.059 2.0081,-1.115 4.0892,-2.094 6.229197,-2.928 2.138,-0.84 4.331,-1.532 6.564,-2.071 2.292,-0.58 4.644,-0.892 7.009,-0.93 -1.766,1.573 -3.707,2.937 -5.786,4.064 -2.008,1.116 -4.09,2.092 -6.232,2.922 -2.139,0.836 -4.332997,1.527 -6.565497,2.067 -2.2922,0.578 -4.6431,0.892 -7.0067,0.935 z"
     fill="#8b9d36"
     id="path18" />
  <path
     d="m 84.556053,264.74283 c 1.5402,-1.334 3.2494,-2.46 5.0835,-3.348 1.7547,-0.873 3.5758,-1.606 5.4463,-2.19 1.8686,-0.591 3.7817,-1.031 5.720697,-1.314 2.014,-0.317 4.061,-0.366 6.088,-0.143 -1.538,1.339 -3.247,2.467 -5.082,3.354 -1.755,0.874 -3.576997,1.604 -5.448597,2.185 -1.8699,0.586 -3.7834,1.024 -5.7225,1.307 -2.0131,0.317 -4.0592,0.367 -6.0854,0.149 z"
     fill="#8b9d36"
     id="path20" />
  <path
     d="m 80.800753,272.07683 c 1.6933,-1.626 3.5683,-3.051 5.5879,-4.247 1.9497,-1.18 3.9778,-2.227 6.07,-3.132 2.0895,-0.911 4.2398,-1.675 6.4349,-2.288 2.254997,-0.656 4.577997,-1.047 6.921997,-1.164 -1.69,1.629 -3.564,3.056 -5.585,4.251 -1.948997,1.182 -3.978497,2.227 -6.072597,3.127 -2.0913,0.907 -4.2421,1.67 -6.4373,2.283 -2.254,0.655 -4.576,1.047 -6.9199,1.17 z"
     fill="#8b9d36"
     id="path22" />
  <path
     d="m 102.10855,232.33383 c -0.313,-2.282 -0.257,-4.599 0.166,-6.863 0.373,-2.135 0.958,-4.227 1.749,-6.244 0.783,-2.02 1.77,-3.955 2.947,-5.775 1.226,-1.951 2.761,-3.69 4.544,-5.149 0.32,2.283 0.266,4.602 -0.158,6.867 -0.372,2.134 -0.96,4.225 -1.757,6.24 -0.789,2.018 -1.779,3.952 -2.954,5.772 -1.227,1.949 -2.759,3.689 -4.537,5.152 z"
     fill="#8b9d36"
     id="path24" />
  <path
     d="m 76.240953,275.70883 -0.856,-0.013 c 0.0383,-2.339 1.0534,-57.471 12.0804,-74.933 l 0.7233,0.458 c -10.8995,17.259 -11.9384,73.918 -11.9477,74.488 z"
     fill="#50661a"
     id="path26" />
  <path
     d="m 84.283653,208.63783 c 0.3391,-2.557 0.4251,-5.143 0.2565,-7.717 -0.1422,-2.509 -0.4206,-5.008 -0.8339,-7.487 -0.3995,-2.468 -0.943,-4.913 -1.5823,-7.337 -0.6384,-2.44 -1.4448,-4.787 -2.3063,-7.288 -0.2434,0.621 -0.4282,1.264 -0.552,1.919 -0.1379,0.644 -0.2387,1.295 -0.3016,1.95 -0.1336,1.286 -0.1916,2.578 -0.1738,3.87 0.0377,2.543 0.2706,5.079 0.6965,7.586 0.4145,2.499 1.0009,4.967 1.7548,7.385 0.7455,2.479 1.7659,4.867 3.0421,7.119 z"
     fill="#50661a"
     id="path28" />
  <path
     d="m 97.837553,173.72583 c -1.8949,1.828 -3.5202,3.917 -4.8266,6.203 -1.2724,2.169 -2.3548,4.443 -3.2352,6.798 -0.8883,2.353 -1.5677,4.779 -2.0305,7.25 -0.5175,2.583 -0.6602,5.227 -0.4237,7.851 1.9008,-1.824 3.5291,-3.912 4.8345,-6.2 1.2736,-2.168 2.3537,-4.444 3.2277,-6.801 0.8822,-2.355 1.5591,-4.781 2.0231,-7.253 0.5157,-2.582 0.6607,-5.225 0.4307,-7.848 z"
     fill="#50661a"
     id="path30" />
  <path
     d="m 106.92555,187.77683 c -2.249,1.807 -4.372,3.764 -6.357,5.858 -1.963997,2.037 -3.838997,4.119 -5.673197,6.213 l -5.4496,6.254 c -0.9142,1.025 -1.838,2.034 -2.814,2.99 -0.9644,1.013 -2.0876,1.861 -3.3254,2.512 0.7549,0.132 1.5286,0.113 2.2759,-0.057 0.7536,-0.151 1.4888,-0.382 2.1927,-0.69 1.3776,-0.606 2.6868,-1.357 3.9053,-2.24 2.3649,-1.731 4.5233,-3.728 6.4333,-5.952 1.898997,-2.178 3.609997,-4.515 5.111997,-6.984 1.546,-2.477 2.788,-5.13 3.7,-7.904 z"
     fill="#50661a"
     id="path32" />
  <path
     d="m 106.92555,201.82783 c -2.772,1.385 -5.416,3.011 -7.901997,4.861 -2.4601,1.799 -4.8265,3.723 -7.0902,5.763 -2.2685,2.035 -4.4299,4.187 -6.4753,6.446 -2.1004,2.279 -3.9929,4.741 -5.6551,7.356 2.7749,-1.379 5.4209,-3.005 7.9063,-4.856 2.4604,-1.798 4.8257,-3.723 7.0862,-5.767 2.2654,-2.039 4.4251,-4.192 6.471097,-6.45 2.099,-2.28 3.993,-4.74 5.659,-7.353 z"
     fill="#50661a"
     id="path34" />
  <path
     d="m 106.00155,212.85283 c -2.793,1.3 -5.465,2.845 -7.983997,4.617 -2.4917,1.723 -4.8934,3.572 -7.1955,5.541 -2.3067,1.963 -4.5092,4.046 -6.5986,6.239 -2.1449,2.212 -4.0868,4.612 -5.8022,7.171 2.7954,-1.295 5.4688,-2.839 7.9878,-4.613 2.4922,-1.721 4.8926,-3.572 7.1915,-5.545 2.3037,-1.967 4.505,-4.051 6.594997,-6.243 2.144,-2.213 4.087,-4.611 5.806,-7.167 z"
     fill="#50661a"
     id="path36" />
  <path
     d="m 105.38555,224.63683 c -2.779,1.045 -5.455997,2.344 -7.997097,3.88 -2.5082,1.487 -4.9353,3.107 -7.2708,4.853 -2.3398,1.74 -4.5835,3.605 -6.721,5.589 -2.1957,1.999 -4.2003,4.199 -5.9877,6.571 2.7812,-1.041 5.4596,-2.338 8.0003,-3.875 2.5086,-1.487 4.9347,-3.108 7.2675,-4.858 2.337,-1.744 4.5792,-3.611 6.7168,-5.594 2.194997,-2 4.200997,-4.198 5.991997,-6.566 z"
     fill="#50661a"
     id="path38" />
  <path
     d="m 106.00155,233.18583 c -2.908,1.17 -5.707,2.592 -8.367297,4.249 -2.6305,1.609 -5.1781,3.35 -7.6331,5.216 -2.4596,1.86 -4.8219,3.845 -7.0778,5.948 -2.312,2.117 -4.4323,4.434 -6.3362,6.924 2.9098,-1.165 5.7109,-2.586 8.3705,-4.244 2.631,-1.609 5.1776,-3.351 7.6298,-5.221 2.4566,-1.864 4.8176,-3.85 7.0741,-5.952 2.310997,-2.118 4.431997,-4.433 6.339997,-6.92 z"
     fill="#50661a"
     id="path40" />
  <path
     d="m 108.15755,241.19683 c -3.027,1.408 -5.95,3.03 -8.745997,4.854 -2.7769,1.778 -5.4634,3.658 -8.0827,5.619 -2.6268,1.95 -5.1809,3.983 -7.6899,6.084 -2.5349,2.083 -4.9294,4.252 -7.5521,6.401 1.6841,-0.277 3.3285,-0.757 4.8973,-1.43 1.5532,-0.649 3.0712,-1.38 4.5475,-2.189 2.9038,-1.625 5.6958,-3.442 8.3571,-5.439 2.6519,-1.988 5.1868,-4.128 7.591797,-6.408 2.451,-2.287 4.686,-4.795 6.677,-7.492 z"
     fill="#50661a"
     id="path42" />
  <path
     d="m 110.77655,249.51483 c -3.272,1.272 -6.446,2.78 -9.498,4.514 -3.032997,1.69 -5.976197,3.504 -8.851997,5.414 -2.8763,1.909 -5.6832,3.917 -8.4207,6.023 -1.3684,1.056 -2.7236,2.131 -4.0658,3.224 -1.2983,1.152 -2.6776,2.208 -4.1272,3.161 0.909,0.001 1.8114,-0.154 2.6682,-0.458 0.8598,-0.255 1.6946,-0.565 2.5202,-0.887 1.6467,-0.654 3.2377,-1.401 4.7982,-2.194 3.0978,-1.595 6.1014,-3.368 8.996,-5.308 2.8941,-1.925 5.689097,-3.997 8.373097,-6.206 2.733,-2.213 5.277,-4.649 7.608,-7.283 z"
     fill="#50661a"
     id="path44" />
  <path
     d="m 81.628853,218.42483 c -0.139,-2.78 -0.5501,-5.539 -1.2275,-8.238 -0.6395,-2.65 -1.4299,-5.261 -2.3673,-7.821 -0.9307,-2.562 -2.0094,-5.068 -3.2306,-7.505 -1.2228,-2.5 -2.6904,-4.873 -4.3812,-7.084 0.134,2.78 0.5432,5.54 1.2217,8.24 0.639,2.65 1.4314,5.26 2.3732,7.818 0.935,2.561 2.0154,5.066 3.236,7.504 1.2235,2.499 2.6891,4.872 4.3757,7.086 z"
     fill="#50661a"
     id="path46" />
  <path
     d="m 79.803053,228.04383 c -0.5248,-2.765 -1.3165,-5.472 -2.364,-8.084 -1.0036,-2.569 -2.1513,-5.079 -3.4378,-7.518 -1.2801,-2.442 -2.6994,-4.809 -4.2509,-7.089 -1.561,-2.342 -3.3479,-4.525 -5.3351,-6.518 0.5199,2.766 1.3099,5.474 2.3585,8.086 1.0032,2.569 2.1528,5.078 3.4433,7.515 1.2843,2.441 2.7052,4.807 4.2559,7.087 1.5619,2.341 3.3469,4.524 5.3301,6.521 z"
     fill="#50661a"
     id="path48" />
  <path
     d="m 78.421253,237.34483 c -0.9,-2.806 -2.0584,-5.523 -3.4603,-8.115 -1.3544,-2.557 -2.8453,-5.039 -4.4661,-7.436 -1.615,-2.4 -3.3602,-4.711 -5.2277,-6.921 -1.8814,-2.269 -3.9716,-4.356 -6.243,-6.235 0.8954,2.809 2.0524,5.527 3.4558,8.119 1.3535,2.557 2.8461,5.039 4.471,7.433 1.6188,2.398 3.3654,4.707 5.2323,6.917 1.882,2.268 3.9703,4.357 6.238,6.238 z"
     fill="#50661a"
     id="path50" />
  <path
     d="m 77.408953,247.60783 c -1.4115,-3.033 -3.0684,-5.946 -4.9541,-8.71 -1.8413,-2.748 -3.806,-5.395 -5.8941,-7.942 -2.0812,-2.551 -4.2829,-5.005 -6.6053,-7.36 -2.3316,-2.4 -4.8583,-4.602 -7.5541,-6.584 1.406,3.037 3.0615,5.951 4.9494,8.714 1.8413,2.748 3.8074,5.394 5.8984,7.938 2.0861,2.548 4.2894,5 6.6098,7.356 2.3329,2.398 4.858,4.602 7.55,6.588 z"
     fill="#50661a"
     id="path52" />
  <path
     d="m 76.587053,258.24983 c -1.7304,-2.884 -3.6924,-5.622 -5.8665,-8.188 -2.1284,-2.555 -4.3691,-4.997 -6.7223,-7.325 -2.3464,-2.335 -4.8028,-4.56 -7.369,-6.674 -2.5799,-2.158 -5.3334,-4.099 -8.2327,-5.804 1.7255,2.888 3.6862,5.627 5.8624,8.192 2.1284,2.555 4.3704,4.995 6.726,7.321 2.3511,2.331 4.8088,4.554 7.3732,6.67 2.581,2.156 5.3331,4.098 8.2289,5.808 z"
     fill="#50661a"
     id="path54" />
  <path
     d="m 76.086953,265.07283 c -1.9195,-2.488 -4.0521,-4.804 -6.3738,-6.921 -2.2672,-2.102 -4.6388,-4.089 -7.1058,-5.953 -2.4624,-1.87 -5.0191,-3.612 -7.6598,-5.22 -2.6697,-1.658 -5.4803,-3.078 -8.3994,-4.242 1.9159,2.491 4.0476,4.809 6.3705,6.926 2.2666,2.103 4.6395,4.088 7.1091,5.948 2.4655,1.866 5.0233,3.607 7.6636,5.215 2.6699,1.657 5.4791,3.078 8.3956,4.247 z"
     fill="#50661a"
     id="path56" />
  <path
     d="m 75.812853,270.77283 c -2.3027,-2.271 -4.7937,-4.342 -7.4463,-6.192 -2.6038,-1.852 -5.2869,-3.564 -8.0492,-5.138 -2.758,-1.582 -5.5932,-3.029 -8.5055,-4.341 -2.9388,-1.351 -5.9881,-2.447 -9.1142,-3.276 2.2996,2.274 4.7899,4.347 7.4438,6.197 2.6038,1.851 5.2877,3.562 8.0517,5.133 2.7609,1.576 5.5971,3.022 8.5084,4.335 2.939,1.349 5.987,2.447 9.1113,3.282 z"
     fill="#50661a"
     id="path58" />
  <path
     d="m 76.025553,274.46983 c -2.7629,-1.907 -5.6765,-3.585 -8.7119,-5.019 -2.989,-1.443 -6.0366,-2.729 -9.1339,-3.88 -3.0968,-1.152 -6.2478,-2.158 -9.453,-3.019 -3.2361,-0.894 -6.5406,-1.519 -9.8797,-1.869 2.7599,1.912 5.673,3.592 8.7098,5.024 2.9894,1.443 6.0348,2.735 9.1359,3.875 3.099,1.146 6.2481,2.158 9.4552,3.013 3.2362,0.892 6.5396,1.519 9.8776,1.875 z"
     fill="#50661a"
     id="path60" />
  <path
     d="m 74.528053,274.17483 c -0.8431,-1.404 -20.6961,-34.494 -23.9072,-43.058 l 0.8015,-0.301 c 3.183,8.492 23.6333,42.575 23.8392,42.918 z"
     fill="#5e7c24"
     id="path62" />
  <path
     d="m 57.909353,213.07883 c -0.8656,2.141 -1.5274,4.36 -1.9767,6.626 -0.4594,2.219 -0.7966,4.462 -1.0103,6.718 -0.2193,2.255 -0.3122,4.522 -0.2782,6.788 0.0129,2.31 0.2465,4.614 0.6977,6.88 0.8698,-2.14 1.5332,-4.359 1.9813,-6.626 0.4601,-2.219 0.7959,-4.462 1.0057,-6.718 0.2153,-2.256 0.3067,-4.522 0.2736,-6.788 -0.0142,-2.31 -0.2462,-4.614 -0.6931,-6.88 z"
     fill="#5e7c24"
     id="path64" />
  <path
     d="m 65.456653,223.39883 c -1.0539,1.995 -1.9129,4.088 -2.5649,6.248 -0.6575,2.111 -1.1955,4.258 -1.6115,6.43 -0.4216,2.171 -0.7185,4.365 -0.8896,6.57 -0.1952,2.248 -0.1706,4.51 0.0736,6.754 1.0578,-1.994 1.9185,-4.086 2.5695,-6.247 0.6578,-2.111 1.1944,-4.258 1.607,-6.431 0.4178,-2.172 0.7133,-4.366 0.8849,-6.57 0.1941,-2.249 0.171,-4.51 -0.069,-6.754 z"
     fill="#5e7c24"
     id="path66" />
  <path
     d="m 69.615253,235.41483 c -0.9282,1.854 -1.66,3.8 -2.1835,5.807 -0.5286,1.954 -0.9366,3.939 -1.2217,5.944 -0.2906,2.004 -0.4556,4.024 -0.4943,6.048 -0.06,2.073 0.0997,4.147 0.4763,6.187 0.9323,-1.853 1.6658,-3.799 2.1881,-5.807 0.5294,-1.954 0.9359,-3.94 1.2172,-5.945 0.2869,-2.004 0.4504,-4.024 0.4896,-6.048 0.0589,-2.073 -0.0991,-4.147 -0.4717,-6.186 z"
     fill="#5e7c24"
     id="path68" />
  <path
     d="m 74.852153,247.40783 c -0.9319,1.553 -1.6751,3.212 -2.214,4.942 -0.5392,1.67 -0.9591,3.377 -1.2568,5.107 -0.3034,1.729 -0.4814,3.477 -0.5327,5.232 -0.0734,1.811 0.0721,3.623 0.4332,5.399 0.9358,-1.552 1.6808,-3.211 2.2187,-4.941 0.5398,-1.67 0.9584,-3.377 1.2526,-5.108 0.2993,-1.73 0.4758,-3.478 0.5281,-5.233 0.0721,-1.81 -0.072,-3.622 -0.4291,-5.398 z"
     fill="#5e7c24"
     id="path70" />
  <path
     d="m 79.472853,254.90383 c -0.9507,1.347 -1.7355,2.804 -2.3373,4.339 -0.5898,1.466 -1.0807,2.97 -1.4694,4.501 -0.3852,1.52 -0.6815,3.062 -0.8875,4.616 -0.0961,0.784 -0.1843,1.563 -0.2427,2.357 -0.0303,0.809 -0.1166,1.616 -0.2583,2.413 0.1977,-0.106 0.3876,-0.226 0.5683,-0.359 l 0.4612,-0.462 c 0.2941,-0.315 0.5638,-0.653 0.8068,-1.009 0.4684,-0.687 0.8832,-1.409 1.2405,-2.159 0.6942,-1.459 1.2396,-2.985 1.6279,-4.553 0.3959,-1.555 0.6524,-3.141 0.7662,-4.741 0.1382,-1.653 0.0454,-3.316 -0.2757,-4.943 z"
     fill="#5e7c24"
     id="path72" />
  <path
     d="m 53.421253,236.39983 c -1.5529,-1.703 -3.3001,-3.218 -5.206,-4.515 -1.8362,-1.276 -3.7589,-2.422 -5.7542,-3.431 -1.9923,-1.015 -4.0539,-1.888 -6.1694,-2.612 -2.173,-0.77 -4.4297,-1.28 -6.7227,-1.518 1.5494,1.707 3.296,3.224 5.2031,4.52 1.8358,1.276 3.7596,2.421 5.757,3.426 1.9945,1.011 4.0568,1.882 6.172,2.607 2.1728,0.769 4.4283,1.28 6.7202,1.523 z"
     fill="#5e7c24"
     id="path74" />
  <path
     d="m 58.535153,245.95283 c -1.9859,-1.625 -4.1382,-3.034 -6.421,-4.204 -2.217,-1.163 -4.5041,-2.188 -6.848,-3.068 -2.3414,-0.886 -4.7366,-1.623 -7.171,-2.207 -2.4888,-0.624 -5.0373,-0.979 -7.6018,-1.059 1.983,1.628 4.1348,3.039 6.4185,4.209 2.2166,1.164 4.5045,2.187 6.8501,3.062 2.3431,0.881 4.7388,1.617 7.1731,2.201 2.4886,0.623 5.0362,0.98 7.6001,1.066 z"
     fill="#5e7c24"
     id="path76" />
  <path
     d="m 64.554653,256.57083 c -1.7681,-1.57 -3.7101,-2.931 -5.788,-4.059 -2.0081,-1.115 -4.0894,-2.094 -6.2296,-2.928 -2.1376,-0.84 -4.3307,-1.532 -6.5635,-2.071 -2.2925,-0.58 -4.6445,-0.892 -7.0089,-0.93 1.7653,1.573 3.7069,2.937 5.786,4.064 2.0076,1.116 4.0898,2.092 6.2317,2.922 2.1394,0.836 4.3329,1.527 6.5655,2.067 2.2923,0.578 4.6432,0.892 7.0068,0.935 z"
     fill="#5e7c24"
     id="path78" />
  <path
     d="m 69.311953,264.74283 c -1.5402,-1.334 -3.2494,-2.46 -5.0835,-3.348 -1.7547,-0.873 -3.5758,-1.606 -5.4463,-2.19 -1.8686,-0.591 -3.7818,-1.031 -5.7211,-1.314 -2.0137,-0.317 -4.0608,-0.366 -6.0872,-0.143 1.5376,1.339 3.2466,2.467 5.0819,3.354 1.7544,0.874 3.5764,1.604 5.4483,2.185 1.8699,0.586 3.7834,1.024 5.7224,1.307 2.0132,0.317 4.0593,0.367 6.0855,0.149 z"
     fill="#5e7c24"
     id="path80" />
  <path
     d="m 73.067253,272.07683 c -1.6933,-1.626 -3.5683,-3.051 -5.5879,-4.247 -1.9498,-1.18 -3.9778,-2.227 -6.0701,-3.132 -2.0895,-0.911 -4.2397,-1.675 -6.4352,-2.288 -2.2542,-0.656 -4.5772,-1.047 -6.922,-1.164 1.6902,1.629 3.5646,3.056 5.5854,4.251 1.9494,1.182 3.9784,2.227 6.0726,3.127 2.0913,0.907 4.2421,1.67 6.4373,2.283 2.254,0.655 4.576,1.047 6.9199,1.17 z"
     fill="#5e7c24"
     id="path82" />
  <path
     d="m 51.759853,232.33383 c 0.3125,-2.282 0.2562,-4.599 -0.1667,-6.863 -0.3722,-2.135 -0.958,-4.227 -1.7485,-6.244 -0.7831,-2.02 -1.7705,-3.955 -2.9469,-5.775 -1.2261,-1.951 -2.7609,-3.69 -4.5445,-5.149 -0.3194,2.283 -0.2658,4.602 0.1587,6.867 0.3715,2.134 0.9599,4.225 1.7561,6.24 0.7891,2.018 1.779,3.952 2.9548,5.772 1.2266,1.949 2.7585,3.689 4.537,5.152 z"
     fill="#5e7c24"
     id="path84" />
  <path
     d="m 185.11355,73.00933 c -8.758,0.5214 -17.518,0.9319 -26.28,1.2315 -8.762,0.3238 -17.526,0.5457 -26.291,0.748 -8.765,0.1696 -17.53,0.3172 -26.298,0.3636 -8.767397,0.0708 -17.536997,0.029 -26.308997,-0.1255 8.7576,-0.5233 17.5177,-0.9347 26.279997,-1.2341 8.762,-0.3234 17.526,-0.5453 26.291,-0.7454 8.765,-0.1675 17.531,-0.3151 26.298,-0.3611 8.768,-0.07 17.537,-0.029 26.309,0.123 z"
     fill="#ebc136"
     id="path86" />
  <path
     d="m 114.57855,99.35883 c -8.758,0.521 -17.518397,0.932 -26.280797,1.232 -8.7619,0.323 -17.526,0.545 -26.2905,0.747 -8.7651,0.17 -17.5307,0.318 -26.2985,0.364 -8.7672,0.071 -17.5369,0.029 -26.3088999,-0.125 8.7576999,-0.524 17.5177999,-0.935 26.2802999,-1.235 8.7619,-0.323 17.5259,-0.545 26.2905,-0.745 8.7652,-0.167 17.5308,-0.315 26.2986,-0.361 8.7673,-0.07 17.537297,-0.029 26.309297,0.123 z"
     fill="#ebc136"
     id="path88" />
  <path
     d="m 144.72555,128.84783 c -8.758,0.521 -17.518,0.932 -26.28,1.231 -8.762,0.324 -17.526,0.546 -26.290797,0.748 -8.7651,0.17 -17.5308,0.317 -26.2985,0.364 -8.7673,0.071 -17.5369,0.029 -26.3089,-0.126 8.7577,-0.523 17.5178,-0.935 26.2802,-1.234 8.762,-0.323 17.526,-0.545 26.2905,-0.745 8.765497,-0.168 17.530497,-0.316 26.298497,-0.361 8.767,-0.07 17.537,-0.03 26.309,0.123 z"
     fill="#ebc136"
     id="path90" />
  <path
     d="M 462.37455,276.57383 H 32.102853 c -0.2311,0 -0.4527,-0.092 -0.6161,-0.256 -0.1634,-0.163 -0.2552,-0.385 -0.2552,-0.616 0,-0.231 0.0918,-0.452 0.2552,-0.616 0.1634,-0.163 0.385,-0.255 0.6161,-0.255 H 462.37455 c 0.231,0 0.452,0.092 0.616,0.255 0.163,0.164 0.255,0.385 0.255,0.616 0,0.231 -0.092,0.453 -0.255,0.616 -0.164,0.164 -0.385,0.256 -0.616,0.256 z"
     fill="#8c8686"
     id="path92" />
  <path
     d="m 317.12655,122.49383 c 8.41,0 8.424,-13.071 0,-13.071 -8.409,0 -8.423,13.071 0,13.071 z"
     fill="#6f56a5"
     id="path94" />
  <path
     d="m 245.83555,12.80243 c 2.645,-0.4258 5.353,-0.217 7.901,0.6094 1.194,0.4121 5.563,1.9194 7.721,6.0257 0.82,1.5594 1.018,3.4421 1.415,7.2076 0.248,2.3519 1.169,4.0301 1.192,6.901 -0.027,2.3266 -0.389,4.637 -1.074,6.8605 -1.026,3.4796 -0.33,5.4456 -0.85,6.0989 -2.099,2.6327 -8.557,0.6362 -8.625,4.0489 -0.042,2.1072 3.591,11.1716 3.54,13.6403 -0.12,5.7525 -9.775,-0.1842 -15.593,-8.7137 -0.264,-0.3871 -4.211,-2.6528 -3.832,-6.3824 0.203,-1.9924 1.813,-11.3468 1.64,-12.5505 -0.624,-4.3506 -2.823,-4.8631 -4.598,-10.1134 -0.481,-1.3179 -0.615,-2.7371 -0.39,-4.1218 0.225,-1.3846 0.802,-2.6882 1.676,-3.7857 2.519,-3.0076 6.015,-5.0339 9.877,-5.7248 z"
     fill="#d19e8a"
     id="path96" />
  <path
     d="m 262.00755,31.44583 c 0.488,-0.0041 0.88,-0.4999 0.875,-1.1073 -0.006,-0.6074 -0.406,-1.0964 -0.894,-1.0923 -0.488,0.0042 -0.88,0.5 -0.875,1.1074 0.005,0.6074 0.405,1.0964 0.894,1.0922 z"
     fill="#0a0709"
     id="path98" />
  <path
     d="m 254.03455,31.51483 c 0.489,-0.0042 0.88,-0.5 0.875,-1.1074 -0.005,-0.6074 -0.405,-1.0964 -0.893,-1.0922 -0.489,0.0042 -0.881,0.5 -0.875,1.1074 0.005,0.6074 0.405,1.0964 0.893,1.0922 z"
     fill="#0a0709"
     id="path100" />
  <path
     d="m 257.77655,28.41413 c 0.108,-0.001 0.213,-0.0334 0.303,-0.0931 0.779,-0.5481 1.706,-0.8478 2.658,-0.8597 0.953,-0.012 1.887,0.2644 2.679,0.7929 0.119,0.0874 0.268,0.124 0.414,0.1019 0.146,-0.0222 0.278,-0.1013 0.366,-0.2201 0.087,-0.1188 0.124,-0.2675 0.103,-0.4137 -0.022,-0.1461 -0.101,-0.2777 -0.219,-0.3659 -0.981,-0.6535 -2.135,-0.9994 -3.314,-0.9934 -1.179,0.006 -2.329,0.3635 -3.304,1.0269 -0.1,0.0665 -0.176,0.1637 -0.217,0.2771 -0.041,0.1135 -0.043,0.237 -0.008,0.3521 0.035,0.1152 0.107,0.2159 0.204,0.2871 0.097,0.0712 0.215,0.109 0.335,0.1079 z"
     fill="#494752"
     id="path102" />
  <path
     d="m 249.51255,28.48473 c 0.108,-10e-4 0.213,-0.0333 0.303,-0.093 0.781,-0.5423 1.707,-0.8385 2.658,-0.8508 0.951,-0.0122 1.884,0.2602 2.679,0.7821 0.059,0.0436 0.126,0.0753 0.197,0.0931 0.071,0.0178 0.145,0.0214 0.217,0.0106 0.073,-0.0107 0.142,-0.0356 0.205,-0.0733 0.063,-0.0376 0.118,-0.0873 0.161,-0.1461 0.044,-0.0588 0.076,-0.1257 0.094,-0.1967 0.017,-0.0711 0.021,-0.1449 0.01,-0.2174 -0.011,-0.0724 -0.035,-0.1421 -0.073,-0.2049 -0.038,-0.0628 -0.087,-0.1176 -0.146,-0.1612 -0.982,-0.6535 -2.136,-0.9994 -3.315,-0.9934 -1.179,0.0059 -2.329,0.3635 -3.304,1.0268 -0.1,0.0665 -0.176,0.1638 -0.217,0.2772 -0.041,0.1134 -0.044,0.2369 -0.008,0.3521 0.035,0.1152 0.107,0.2159 0.204,0.287 0.097,0.0712 0.215,0.109 0.335,0.1079 z"
     fill="#494752"
     id="path104" />
  <path
     d="m 257.01855,28.64753 c -0.29,0.9294 -0.245,1.9309 0.126,2.8309 0.322,0.905 0.785,1.7532 1.372,2.5133 l 0.466,0.5216 c 0.057,0.0515 0.103,0.1139 0.136,0.1835 0.032,0.0696 0.05,0.1449 0.053,0.2216 -0.034,0.3766 -0.215,0.7244 -0.505,0.9679 -0.711,0.534 -1.597,0.7815 -2.482,0.6934 0.46,0.1839 0.957,0.2552 1.45,0.208 0.493,-0.0472 0.968,-0.2114 1.385,-0.4791 0.23,-0.1575 0.422,-0.3635 0.564,-0.6034 0.141,-0.2399 0.229,-0.508 0.256,-0.7853 0.002,-0.3149 -0.116,-0.6188 -0.33,-0.85 l -0.45,-0.527 c -0.551,-0.7117 -1.025,-1.4791 -1.416,-2.2896 -0.426,-0.8014 -0.642,-1.6982 -0.625,-2.6058 z"
     fill="#b5806d"
     id="path106" />
  <path
     d="m 242.53155,29.14353 c -0.345,-0.0999 -0.715,-0.078 -1.046,0.0622 -0.331,0.1307 -0.63,0.3284 -0.88,0.5808 -0.244,0.2477 -0.442,0.5357 -0.587,0.8513 -0.146,0.3137 -0.226,0.6533 -0.238,0.9988 0.246,-0.2181 0.479,-0.4509 0.697,-0.6971 0.221,-0.2204 0.409,-0.4554 0.626,-0.6556 0.205,-0.2115 0.422,-0.4118 0.649,-0.5999 0.243,-0.2027 0.504,-0.3836 0.779,-0.5405 z"
     fill="#b5806d"
     id="path108" />
  <path
     d="m 241.85255,33.73583 c 0.228,-0.3005 0.39,-0.6462 0.475,-1.0141 0.084,-0.3679 0.09,-0.7496 0.015,-1.1198 -0.063,-0.3742 -0.2,-0.7322 -0.403,-1.0532 -0.196,-0.3215 -0.467,-0.591 -0.789,-0.7858 0.203,0.643 0.369,1.2971 0.498,1.959 0.108,0.6667 0.176,1.3392 0.204,2.0139 z"
     fill="#b5806d"
     id="path110" />
  <path
     d="m 247.29655,37.78853 c 0,0 -1.519,-6.3122 -1.266,-8.1252 0.352,-2.5264 0.529,-3.7895 0.218,-4.8137 -0.498,-1.6395 0.301,-1.8603 1.316,-3.6354 0.953,-1.666 3.959,-0.3497 4.704,-0.6324 2.091,-0.7935 2.006,-1.6762 3.424,-1.7766 1.453,-0.1028 2.518,-0.4963 3.465,0.4343 0.967,0.9498 2.747,3.4813 3.177,3.0358 0.904,-1.2254 1.453,-2.6761 1.586,-4.193 -0.002,-1.4939 -0.368,-2.9649 -1.066,-4.2854 -0.351,-0.7633 -1.658,-3.604 -4.334,-4.3424996 -1.541,-0.4254 -1.83,0.3177 -5.154,0.543 -3.448,0.2337996 -3.562,-0.5368 -5.364,-0.0078 -1.995,0.5855996 -1.911,1.5453996 -5.312,3.4415996 -1.128,0.6087 -2.288,1.1557 -3.476,1.6385 -4.275,1.8537 -4.838,1.568 -5.817,2.53 -2.11,2.0742 -1.732,5.6063 -1.641,6.4595 0.257,2.4028 1.202,3.1175 3.277,6.9524 3.285,6.0731 2.658,8.6422 3.851,9.4875 0.585,0.4146 3.633,-1.7921 3.61,-2.8665 -0.031,-1.4084 -1.049,-1.8442 -2.262,-3.8698 -0.846,-1.4157 -2.063,-3.4482 -1.388,-5.3058 0.408,-1.1229 0.876,-0.8207 2.037,-0.723 1.575,0.1325 2.368,2.3185 3.012,3.9223 0.466,1.1607 0.673,2.4088 0.607,3.6576 -0.143,2.7861 3.348,3.5787 2.796,2.4746 z"
     fill="#2e2c33"
     id="path112" />
  <path
     d="m 254.38255,40.48213 c 0,0 3.51,3.219 6.597,-0.0563 z"
     fill="#9d6d5c"
     id="path114" />
  <path
     d="m 255.16555,56.84843 c 0,0 6.169,17.8401 -17.42,-8.6612 l -10.249,8.5117 c -2.124,1.7943 -3.589,4.2457 -4.163,6.9663 -0.502,3.8596 -1.004,7.7191 -1.507,11.5788 -1.908,14.6734 -1.922,29.5318 -0.039,44.2088 0.508,3.958 1.016,7.916 1.523,11.874 l 44.072,6.052 c -2.48,-8.488 -3.944,-17.24 -4.362,-26.074 -0.496,-10.573 0.813,-15.0711 0.314,-23.8406 -0.689,-10.6424 -3.464,-21.0453 -8.169,-30.6158 z"
     fill="#ffba55"
     id="path116" />
  <path
     d="m 261.59355,128.03983 c -0.798,-0.457 -1.611,-0.872 -2.412,-1.308 l -2.353,-1.384 c -1.533,-0.965 -2.998,-2.033 -4.384,-3.199 -1.388,-1.153 -2.643,-2.456 -3.743,-3.887 -0.543,-0.721 -1.026,-1.485 -1.446,-2.284 -0.446,-0.793 -0.786,-1.642 -1.009,-2.524 0.253,1.843 0.943,3.599 2.012,5.121 1.043,1.539 2.298,2.923 3.729,4.11 1.416,1.191 2.945,2.239 4.567,3.128 l 2.473,1.227 c 0.859,0.334 1.705,0.688 2.566,1 z"
     fill="#e6952a"
     id="path118" />
  <path
     d="m 249.27455,46.14623 c 2.905,2.0051 8.471,1.8702 8.471,1.8702 l 0.018,0.1296 c -2.162,0.2817 -4.21,0.4943 -4.248,2.4082 0.102,1.0708 0.33,2.1259 0.678,3.1437 -3.801,-2.1417 -4.919,-7.5517 -4.919,-7.5517 z"
     fill="#b5806d"
     id="path120" />
  <path
     d="m 306.88155,200.74083 2.359,11.95 23.127,3.725 -30.925,9.392 -6.509,-21.439 z"
     fill="#d19e8a"
     id="path122" />
  <path
     d="m 335.79155,216.52783 -0.022,-0.071 c -0.164,-0.542 -0.476,-1.028 -0.901,-1.404 -0.425,-0.375 -0.945,-0.625 -1.503,-0.722 l -24.102,-4.188 c -0.236,-0.041 -0.478,0.002 -0.685,0.122 -0.208,0.12 -0.366,0.309 -0.448,0.534 l -2.434,6.679 c -0.087,0.237 -0.258,0.434 -0.481,0.552 -0.223,0.118 -0.481,0.15 -0.726,0.088 l -5.669,-1.421 c -0.175,-0.044 -0.359,-0.04 -0.532,0.01 -0.174,0.05 -0.331,0.146 -0.455,0.276 -0.125,0.131 -0.212,0.293 -0.254,0.468 -0.041,0.176 -0.036,0.359 0.017,0.532 l 2.82,9.288 c 0.078,0.259 0.256,0.476 0.495,0.604 0.239,0.127 0.518,0.154 0.777,0.076 l 33.423,-10.15 c 0.259,-0.079 0.476,-0.257 0.603,-0.496 0.128,-0.239 0.155,-0.518 0.077,-0.777 z"
     fill="#251d1b"
     id="path124" />
  <path
     d="m 222.46855,122.63383 c 0,0 -7.042,31.218 6.417,30.658 h 51.164 l 13.784,55.637 c 0,0 5.3,2.162 9.9,1.199 3.16,-0.662 5.883,-3.677 7.776,-5.219 0,0 -10.07,-79.764 -29.119,-82.186 -23.761,-3.021 -59.922,-0.089 -59.922,-0.089 z"
     fill="#808b49"
     id="path126" />
  <path
     d="m 280.04955,153.29183 c 1.18,-1.481 2.233,-3.058 3.151,-4.714 0.428,-0.817 0.867,-1.634 1.251,-2.496 0.406,-0.856 0.754,-1.742 1.221,-2.651 0.13,1.003 0.081,2.02 -0.145,3.006 -0.208,0.995 -0.564,1.954 -1.056,2.843 -0.491,0.895 -1.117,1.707 -1.858,2.409 -0.72,0.724 -1.598,1.272 -2.564,1.603 z"
     fill="#5e7c24"
     id="path128" />
  <path
     d="m 239.12055,68.07293 c 0,0 1.996,-4.7577 28.119,32.7649 l -9.926,12.884 c 0,0 -14.411,-11.861 -20.939,-22.0995"
     fill="#ffba55"
     id="path130" />
  <path
     d="m 322.30455,105.50183 23.04,-10.9908 1.182,25.1838 -22.154,-7.171 z"
     fill="#8e6cd8"
     id="path132" />
  <path
     d="m 187.90055,275.70183 c 18.808,0 34.055,-15.29 34.055,-34.151 0,-18.862 -15.247,-34.152 -34.055,-34.152 -18.808,0 -34.055,15.29 -34.055,34.152 0,18.861 15.247,34.151 34.055,34.151 z"
     fill="#1e1d22"
     id="path134" />
  <path
     d="m 187.90055,259.27483 c 9.761,0 17.674,-7.936 17.674,-17.724 0,-9.789 -7.913,-17.724 -17.674,-17.724 -9.761,0 -17.674,7.935 -17.674,17.724 0,9.788 7.913,17.724 17.674,17.724 z"
     fill="#848384"
     id="path136" />
  <path
     d="m 187.22855,245.99083 c 3.333,0 3.338,-5.18 0,-5.18 -3.333,0 -3.339,5.18 0,5.18 z"
     fill="#ffffff"
     id="path138" />
  <path
     d="m 372.67655,275.70183 c 18.808,0 34.055,-15.29 34.055,-34.151 0,-18.862 -15.247,-34.152 -34.055,-34.152 -18.809,0 -34.056,15.29 -34.056,34.152 0,18.861 15.247,34.151 34.056,34.151 z"
     fill="#1e1d22"
     id="path140" />
  <path
     d="m 372.67655,259.27483 c 9.761,0 17.674,-7.936 17.674,-17.724 0,-9.789 -7.913,-17.724 -17.674,-17.724 -9.762,0 -17.675,7.935 -17.675,17.724 0,9.788 7.913,17.724 17.675,17.724 z"
     fill="#848384"
     id="path142" />
  <path
     d="m 372.00355,248.62883 c 6.728,0 6.739,-10.456 0,-10.456 -6.727,0 -6.738,10.456 0,10.456 z"
     fill="#1e1d22"
     id="path144" />
  <path
     d="m 416.21555,237.65983 c 0,0 -31.038,-15.563 -86.216,5.188 h -98.56 c 0,0 -32.762,20.75 -87.94,5.187 0,0 -6.897,-12.104 10.346,-38.042 0,0 10.346,-29.396 17.243,-34.583 l 95.079,0.049 c 0,0 -2.219,48.006 32.268,51.465 34.486,3.458 31.037,-29.396 31.037,-29.396 l -4.564,-72.712 c -0.079,-4.611 -0.393,-9.215 -0.942,-13.794 -0.628,-5.34 -2.439,-4.597 -0.283,-3.516 3.448,1.729 37.354,38.507 44.251,90.383 0,0 39.659,-5.188 48.281,39.771 z"
     fill="#8e6cd8"
     id="path146" />
  <path
     d="m 367.93455,197.88883 c -5.089,1.321 -9.945,3.414 -14.401,6.206 -2.186,1.372 -4.257,2.92 -6.192,4.629 -1.943,1.682 -3.721,3.546 -5.312,5.565 -1.629,1.993 -3.079,4.125 -4.334,6.373 -0.347,0.544 -0.629,1.125 -0.93,1.697 -0.289,0.578 -0.619,1.136 -0.875,1.731 -0.516,1.188 -1.095,2.352 -1.549,3.573 -1.89,4.924 -3.343,10.005 -4.342,15.185 -0.129,-5.397 0.615,-10.78 2.204,-15.939 1.577,-5.253 4.146,-10.156 7.566,-14.443 5.199,-6.422 12.256,-11.081 20.205,-13.338 2.589,-0.752 5.264,-1.169 7.96,-1.239 z"
     fill="#6f56a5"
     id="path148" />
  <path
     d="m 231.43955,242.84783 c 3.06,-4.682 5.451,-9.769 7.104,-15.113 1.61,-5.268 2.297,-10.894 1.043,-16.106 -1.322,-5.208 -4.514,-9.748 -8.966,-12.756 -0.274,-0.194 -0.528,-0.412 -0.816,-0.589 l -0.861,-0.53 c -0.578,-0.348 -1.131,-0.734 -1.729,-1.052 -1.223,-0.597 -2.377,-1.293 -3.672,-1.784 l -1.899,-0.799 c -0.613,-0.255 -1.239,-0.478 -1.874,-0.669 -1.287,-0.4 -2.611,-0.73 -3.944,-1.012 -5.376,-1.125 -10.882,-1.497 -16.36,-1.107 -2.747,0.182 -5.482,0.527 -8.189,1.034 -2.71,0.511 -5.381,1.216 -8.037,1.989 -10.625,3.482 -20.57,8.773 -29.394,15.639 l 3.144,-2.82 3.291,-2.656 3.407,-2.518 c 1.175,-0.784 2.337,-1.594 3.529,-2.36 4.821,-3.024 9.955,-5.518 15.312,-7.438 5.406,-1.898 11.028,-3.111 16.735,-3.613 5.742,-0.48 11.522,-0.139 17.168,1.011 1.412,0.309 2.814,0.67 4.206,1.116 0.686,0.221 1.412,0.468 2.086,0.763 l 1.978,0.852 c 1.332,0.519 2.594,1.279 3.886,1.93 0.638,0.347 1.24,0.769 1.861,1.15 0.629,0.375 1.23,0.795 1.799,1.255 4.885,3.457 8.292,8.625 9.545,14.478 0.558,2.874 0.635,5.821 0.229,8.721 -0.4,2.847 -1.117,5.639 -2.137,8.326 -1.024,2.651 -2.252,5.217 -3.672,7.678 -1.393,2.456 -2.989,4.791 -4.773,6.98 z"
     fill="#6f56a5"
     id="path150" />
  <path
     d="m 167.31355,176.77783 h 94.092 c 5.714,0 10.346,-5.258 10.346,-11.743 0,-6.485 -4.632,-11.743 -10.346,-11.743 h -94.092 c -5.714,0 -10.346,5.258 -10.346,11.743 0,6.485 4.632,11.743 10.346,11.743 z"
     fill="#6f56a5"
     id="path152" />
  <path
     d="m 220.05955,204.90883 c -1.567,1.845 -3.329,3.514 -5.257,4.977 -1.915,1.487 -3.93,2.841 -6.031,4.052 -1.028,0.651 -2.118,1.179 -3.194,1.74 -1.069,0.578 -2.182,1.056 -3.284,1.563 -0.55,0.256 -1.108,0.493 -1.665,0.734 l -1.699,0.646 c -1.139,0.413 -2.26,0.883 -3.414,1.249 -4.604,1.495 -9.329,2.585 -14.121,3.259 -2.38,0.394 -4.802,0.492 -7.194,0.706 -2.408,0.075 -4.817,0.078 -7.216,-0.008 2.353,-0.558 4.706,-0.94 7.039,-1.408 l 3.486,-0.755 c 1.159,-0.251 2.327,-0.445 3.469,-0.763 1.148,-0.294 2.295,-0.576 3.447,-0.833 1.157,-0.236 2.276,-0.623 3.414,-0.928 1.129,-0.338 2.289,-0.568 3.402,-0.953 l 3.362,-1.074 c 1.129,-0.334 2.221,-0.77 3.334,-1.149 l 1.66,-0.594 c 0.543,-0.223 1.085,-0.45 1.635,-0.659 2.209,-0.813 4.34,-1.806 6.487,-2.772 1.06,-0.51 2.133,-1.004 3.172,-1.559 l 1.578,-0.807 1.545,-0.867 c 2.087,-1.147 4.105,-2.414 6.045,-3.797 z"
     fill="#6f56a5"
     id="path154" />
  <path
     d="m 224.09255,216.31483 c -1.566,1.845 -3.329,3.514 -5.257,4.977 -1.915,1.487 -3.93,2.841 -6.031,4.052 -1.027,0.651 -2.117,1.179 -3.193,1.74 -1.07,0.578 -2.182,1.056 -3.285,1.563 -0.55,0.256 -1.108,0.493 -1.665,0.734 l -1.699,0.646 c -1.138,0.413 -2.26,0.883 -3.414,1.249 -4.603,1.495 -9.328,2.585 -14.121,3.259 -2.38,0.394 -4.802,0.492 -7.193,0.706 -2.409,0.075 -4.818,0.078 -7.216,-0.008 2.352,-0.558 4.705,-0.94 7.039,-1.408 l 3.485,-0.755 c 1.16,-0.251 2.327,-0.445 3.47,-0.763 1.147,-0.294 2.295,-0.576 3.446,-0.833 1.157,-0.236 2.277,-0.623 3.415,-0.928 1.129,-0.338 2.288,-0.568 3.401,-0.953 l 3.363,-1.074 c 1.128,-0.334 2.22,-0.77 3.333,-1.149 l 1.661,-0.594 c 0.543,-0.223 1.085,-0.45 1.634,-0.659 2.209,-0.813 4.34,-1.806 6.487,-2.772 1.06,-0.51 2.134,-1.004 3.172,-1.559 l 1.578,-0.807 1.545,-0.867 c 2.087,-1.147 4.106,-2.414 6.045,-3.797 z"
     fill="#6f56a5"
     id="path156" />
  <path
     d="m 346.40555,119.69983 c 2.16,-0.101 3.646,-5.821 3.319,-12.775 -0.326,-6.955 -2.341,-12.5099 -4.501,-12.4086 -2.159,0.1014 -3.645,5.8216 -3.319,12.7756 0.327,6.954 2.342,12.51 4.501,12.408 z"
     fill="#ffba55"
     id="path158" />
  <path
     d="m 345.22355,94.51643 c -0.269,0.0766 -0.519,0.2115 -0.73,0.3951 -0.212,0.1836 -0.38,0.4115 -0.494,0.6675 -0.267,0.4897 -0.473,1.0103 -0.614,1.5498 -0.293,1.09 -0.496,2.202 -0.606,3.325 -0.413,4.529 -0.198,9.093 0.638,13.563 0.216,1.108 0.522,2.196 0.915,3.253 0.19,0.525 0.444,1.024 0.756,1.486 0.137,0.244 0.326,0.455 0.553,0.619 0.228,0.163 0.489,0.274 0.764,0.325 -0.304,0.02 -0.609,-0.03 -0.89,-0.148 -0.281,-0.118 -0.531,-0.3 -0.73,-0.53 -0.428,-0.428 -0.796,-0.912 -1.093,-1.438 -0.58,-1.041 -1.041,-2.144 -1.373,-3.289 -1.298,-4.558 -1.523,-9.355 -0.656,-14.014 0.224,-1.171 0.579,-2.312 1.059,-3.403 0.246,-0.5519 0.567,-1.0679 0.953,-1.5335 0.176,-0.2485 0.408,-0.4527 0.676,-0.5963 0.269,-0.1437 0.568,-0.223 0.872,-0.2316 z"
     fill="#e6952a"
     id="path160" />
  <path
     d="m 335.89755,121.16483 c -1.076,-0.945 -2.065,-1.937 -3.036,-2.938 l -2.88,-3.001 c -0.945,-1.005 -1.908,-1.985 -2.901,-2.915 -0.493,-0.464 -1.013,-0.897 -1.559,-1.297 -0.534,-0.426 -1.166,-0.712 -1.838,-0.83 0.725,-0.176 1.489,-0.107 2.17,0.199 0.679,0.273 1.326,0.621 1.927,1.037 1.179,0.818 2.268,1.757 3.25,2.802 0.975,1.03 1.877,2.127 2.698,3.282 0.838,1.148 1.564,2.374 2.169,3.661 z"
     fill="#6f56a5"
     id="path162" />
  <path
     d="m 203.45155,150.46283 h -51.776 c -0.747,0 -1.463,-0.297 -1.991,-0.825 -0.529,-0.529 -0.825,-1.245 -0.825,-1.992 v -37.926 h 57.409 v 37.926 c 0,0.747 -0.297,1.463 -0.825,1.992 -0.529,0.528 -1.245,0.825 -1.992,0.825 z"
     fill="#584432"
     id="path164" />
  <path
     d="m 184.14655,121.45483 c -0.186,-0.284 -0.456,-0.292 -0.765,-0.301 -0.035,-0.001 -0.07,-0.002 -0.106,-0.004 -0.028,-10e-4 -0.058,-10e-4 -0.089,0 -0.125,0.002 -0.272,0.004 -0.345,-0.101 -0.086,-0.122 -0.078,-0.357 -0.071,-0.551 0.002,-0.062 0.004,-0.119 0.003,-0.167 -0.012,-0.452 -0.037,-0.931 -0.212,-1.091 -0.131,-0.12 -0.525,-0.104 -0.888,-0.088 -0.117,0.005 -0.232,0.009 -0.333,0.009 h -7.723 c -0.156,0 -0.319,-0.012 -0.479,-0.025 -0.312,-0.024 -0.613,-0.047 -0.827,0.025 -0.311,0.106 -0.332,0.663 -0.352,1.188 l -0.001,0.028 c -0.016,0.433 -0.124,0.767 -0.48,0.733 -0.414,-0.038 -0.826,-0.05 -1.013,0.324 -0.221,0.443 -0.175,0.906 -0.094,1.737 0.012,0.118 0.024,0.244 0.037,0.379 h 13.857 c 0.008,-0.098 0.017,-0.195 0.025,-0.291 0.065,-0.747 0.121,-1.398 -0.144,-1.804 z"
     fill="#785a3f"
     id="path166" />
  <path
     fill-rule="evenodd"
     clip-rule="evenodd"
     d="m 171.48755,124.37383 c 0.216,2.925 0.431,5.855 0.645,8.784 v 0.002 c 0.116,1.59 0.232,3.181 0.349,4.771 h 0.442 c 0.03,0.249 0.065,0.556 0.101,0.88 0.074,0.658 0.155,1.384 0.224,1.831 h 0.049 c 0.45,-0.165 3.563,-1.494 3.565,-6.787 -0.001,-0.015 0,-0.03 0.001,-0.045 h -0.769 c -0.037,0 -0.073,-0.013 -0.103,-0.035 -0.029,-0.023 -0.05,-0.054 -0.06,-0.09 -0.075,-0.185 -0.135,-0.375 -0.18,-0.569 -0.453,0.255 -0.812,0.645 -1.027,1.114 -0.204,-0.481 -0.231,-1.016 -0.076,-1.514 0.156,-0.497 0.483,-0.925 0.926,-1.209 0.005,-1.544 0.584,-3.033 1.627,-4.184 l 0.016,-0.014 c 0.03,-0.027 0.069,-0.041 0.109,-0.042 0.023,0.001 0.046,0.006 0.068,0.015 0.021,0.01 0.04,0.023 0.056,0.041 1.055,1.153 1.63,2.656 1.613,4.209 0.45,0.276 0.784,0.703 0.94,1.204 0.155,0.5 0.122,1.039 -0.094,1.517 -0.214,-0.47 -0.574,-0.86 -1.027,-1.114 -0.028,0.188 -0.079,0.372 -0.152,0.548 -0.025,0.075 -0.076,0.123 -0.127,0.123 h -0.82 c 0.001,0.009 0.002,0.018 0.003,0.027 v 0.002 0.005 c 0,0.007 0,0.015 0,0.023 0.011,5.444 3.322,6.68 3.601,6.775 h 0.095 c 0.024,-0.429 0.104,-1.021 0.181,-1.598 0.053,-0.397 0.106,-0.788 0.139,-1.113 h 0.447 c 0.143,-2.003 0.29,-4 0.437,-5.997 l 10e-4,-0.001 v -0.001 c 0.188,-2.555 0.376,-5.109 0.556,-7.676 h -11.727 c -0.034,0.007 -0.032,0.062 -0.029,0.118 z m 5.839,2.893 h -0.001 0.002 z"
     fill="#785a3f"
     id="path168" />
  <path
     d="m 213.21855,100.57583 v 5.157 c 0.048,1.005 -0.303,1.989 -0.977,2.737 -0.675,0.747 -1.618,1.197 -2.623,1.252 h -64.114 c -1.005,-0.055 -1.946,-0.506 -2.62,-1.253 -0.673,-0.748 -1.023,-1.731 -0.973,-2.736 v -5.157 c -0.049,-1.003 0.302,-1.986 0.975,-2.732 0.673,-0.746 1.615,-1.1951 2.618,-1.2494 h 64.114 c 1.004,0.054 1.946,0.5034 2.621,1.2484 0.674,0.746 1.026,1.729 0.979,2.733 z"
     fill="#785a3f"
     id="path170" />
  <path
     d="m 205.63355,150.48783 h -34.148 l -7.702,-8.099 c -0.114,-0.126 -0.255,-0.226 -0.412,-0.292 -0.157,-0.067 -0.327,-0.099 -0.497,-0.094 -0.17,0.005 -0.338,0.047 -0.491,0.123 -0.152,0.075 -0.287,0.183 -0.394,0.315 -0.234,0.282 -0.357,0.638 -0.349,1.004 0.009,0.365 0.149,0.716 0.396,0.986 l 5.759,6.057 h -9.187 v -6.392 c 0.018,-0.177 -0.001,-0.357 -0.057,-0.527 -0.055,-0.17 -0.146,-0.326 -0.266,-0.459 -0.119,-0.132 -0.265,-0.238 -0.429,-0.311 -0.163,-0.073 -0.34,-0.11 -0.518,-0.11 -0.179,0 -0.355,0.037 -0.519,0.11 -0.163,0.073 -0.309,0.179 -0.429,0.311 -0.119,0.133 -0.21,0.289 -0.265,0.459 -0.056,0.17 -0.075,0.35 -0.057,0.527 v 6.392 h -6.272 c -0.349,0.036 -0.671,0.199 -0.906,0.459 -0.234,0.26 -0.364,0.598 -0.364,0.948 0,0.35 0.13,0.688 0.364,0.948 0.235,0.259 0.557,0.423 0.906,0.459 h 6.272 v 6.392 c -0.018,0.177 0.001,0.357 0.057,0.527 0.055,0.17 0.146,0.326 0.265,0.459 0.12,0.132 0.266,0.238 0.429,0.311 0.164,0.072 0.34,0.11 0.519,0.11 0.178,0 0.355,-0.038 0.518,-0.11 0.164,-0.073 0.31,-0.179 0.429,-0.311 0.12,-0.133 0.211,-0.289 0.266,-0.459 0.056,-0.17 0.075,-0.35 0.057,-0.527 v -6.392 h 11.863 l 6.397,6.727 c 0.115,0.126 0.256,0.225 0.413,0.292 0.157,0.067 0.326,0.098 0.496,0.093 0.171,-0.004 0.338,-0.046 0.491,-0.122 0.153,-0.075 0.287,-0.183 0.395,-0.315 0.233,-0.282 0.357,-0.638 0.348,-1.004 -0.008,-0.365 -0.149,-0.716 -0.395,-0.986 l -4.455,-4.685 h 31.472 c 0.348,-0.036 0.671,-0.2 0.905,-0.459 0.235,-0.26 0.365,-0.598 0.365,-0.948 0,-0.35 -0.13,-0.688 -0.365,-0.948 -0.234,-0.26 -0.557,-0.423 -0.905,-0.459 z"
     fill="#464646"
     id="path172" />
  <path
     d="m 266.94555,101.56783 39.307,5.241 c 0,0 16.054,-5.958 19.324,2.491 0.432,1.167 0.445,2.448 0.036,3.624 -0.981,2.939 -3.299,8.743 -4.997,3.9 l -1.745,-4.979 c 0,0 -6.026,4.173 -11.848,2.104 -2.103,-0.748 -30.253,4.736 -45.429,1.034 l -4.28,-1.261 z"
     fill="#d19e8a"
     id="path174" />
  <path
     d="m 239.12055,68.07283 c 0.125,-0.2144 0.406,-0.2146 0.625,-0.1926 0.228,0.0429 0.451,0.1072 0.667,0.1919 0.416,0.1993 0.816,0.4322 1.194,0.6963 0.386,0.2515 0.754,0.5292 1.102,0.8312 0.349,0.2985 0.724,0.5718 1.051,0.8933 1.362,1.2335 2.651,2.5439 3.902,3.8855 2.497,2.6911 4.797,5.5452 7.104,8.3917 2.29,2.8598 4.502,5.7803 6.666,8.7321 2.202,2.9275 4.265,5.9496 6.4,8.9236 l 0.307,0.428 -0.328,0.425 -4.974,6.432 -5.003,6.411 -0.424,0.543 -0.513,-0.437 c -1.958,-1.664 -3.848,-3.371 -5.69,-5.143 -1.842,-1.77 -3.652,-3.571 -5.405,-5.429 -1.752,-1.857 -3.451,-3.767 -5.036,-5.771 -1.604,-1.9857 -3.071,-4.0781 -4.391,-6.2627 1.483,2.0645 3.075,4.0476 4.771,5.9407 1.7,1.886 3.478,3.698 5.269,5.494 1.804,1.783 3.666,3.509 5.556,5.201 1.899,1.678 3.81,3.359 5.76,4.957 l -0.937,0.106 4.923,-6.472 4.951,-6.451 -0.021,0.852 c -2.102,-2.985 -4.174,-5.9935 -6.309,-8.9541 -2.104,-2.9841 -4.273,-5.9187 -6.432,-8.8615 -2.19,-2.9164 -4.399,-5.8254 -6.759,-8.601 -1.164,-1.4018 -2.366,-2.7726 -3.643,-4.0695 -0.306,-0.3389 -0.658,-0.6252 -0.986,-0.9407 -0.326,-0.3156 -0.672,-0.6106 -1.034,-0.8833 -0.351,-0.2874 -0.724,-0.5457 -1.117,-0.7723 -0.202,-0.0974 -0.412,-0.176 -0.629,-0.235 -0.209,-0.0364 -0.477,-0.0613 -0.617,0.1404 z"
     fill="#e6952a"
     id="path176" />
  <path
     d="m 157.38955,152.81983 c 0.259,-0.009 0.506,-0.118 0.686,-0.305 0.181,-0.187 0.282,-0.437 0.282,-0.697 0,-0.26 -0.101,-0.51 -0.282,-0.697 -0.18,-0.187 -0.427,-0.297 -0.686,-0.306 -0.26,0.009 -0.507,0.119 -0.687,0.306 -0.181,0.187 -0.282,0.437 -0.282,0.697 0,0.26 0.101,0.51 0.282,0.697 0.18,0.187 0.427,0.296 0.687,0.305 z"
     fill="#616161"
     id="path178" />
  <path
     d="m 157.38955,160.35383 c 0.259,-0.009 0.506,-0.118 0.686,-0.305 0.181,-0.187 0.282,-0.437 0.282,-0.697 0,-0.26 -0.101,-0.51 -0.282,-0.697 -0.18,-0.187 -0.427,-0.297 -0.686,-0.306 -0.26,0.009 -0.507,0.119 -0.687,0.306 -0.181,0.187 -0.282,0.437 -0.282,0.697 0,0.26 0.101,0.51 0.282,0.697 0.18,0.187 0.427,0.296 0.687,0.305 z"
     fill="#616161"
     id="path180" />
  <path
     d="m 163.10255,144.62083 c 0.26,-0.009 0.506,-0.118 0.687,-0.306 0.181,-0.187 0.282,-0.436 0.282,-0.696 0,-0.261 -0.101,-0.51 -0.282,-0.697 -0.181,-0.187 -0.427,-0.297 -0.687,-0.306 -0.26,0.009 -0.506,0.119 -0.686,0.306 -0.181,0.187 -0.282,0.436 -0.282,0.697 0,0.26 0.101,0.509 0.282,0.696 0.18,0.188 0.426,0.297 0.686,0.306 z"
     fill="#616161"
     id="path182" />
  <path
     d="m 157.38955,145.30683 c 0.259,-0.009 0.506,-0.119 0.686,-0.306 0.181,-0.187 0.282,-0.437 0.282,-0.697 0,-0.26 -0.101,-0.509 -0.282,-0.696 -0.18,-0.187 -0.427,-0.297 -0.686,-0.306 -0.26,0.009 -0.506,0.119 -0.687,0.306 -0.181,0.187 -0.282,0.436 -0.282,0.696 0,0.26 0.101,0.51 0.282,0.697 0.181,0.187 0.427,0.297 0.687,0.306 z"
     fill="#616161"
     id="path184" />
  <path
     d="m 170.41655,152.81983 c 0.26,-0.009 0.506,-0.118 0.687,-0.305 0.18,-0.187 0.281,-0.437 0.281,-0.697 0,-0.26 -0.101,-0.51 -0.281,-0.697 -0.181,-0.187 -0.427,-0.297 -0.687,-0.306 -0.26,0.009 -0.506,0.119 -0.687,0.306 -0.18,0.187 -0.281,0.437 -0.281,0.697 0,0.26 0.101,0.51 0.281,0.697 0.181,0.187 0.427,0.296 0.687,0.305 z"
     fill="#616161"
     id="path186" />
  <path
     d="m 177.56355,152.55383 c 0.26,-0.009 0.506,-0.119 0.687,-0.306 0.181,-0.187 0.281,-0.436 0.281,-0.696 0,-0.261 -0.1,-0.51 -0.281,-0.697 -0.181,-0.187 -0.427,-0.297 -0.687,-0.306 -0.26,0.009 -0.506,0.119 -0.687,0.306 -0.18,0.187 -0.281,0.436 -0.281,0.697 0,0.26 0.101,0.509 0.281,0.696 0.181,0.187 0.427,0.297 0.687,0.306 z"
     fill="#616161"
     id="path188" />
  <path
     d="m 177.56355,159.88983 c 0.26,-0.009 0.506,-0.118 0.687,-0.305 0.181,-0.187 0.281,-0.437 0.281,-0.697 0,-0.26 -0.1,-0.51 -0.281,-0.697 -0.181,-0.187 -0.427,-0.297 -0.687,-0.306 -0.26,0.009 -0.506,0.119 -0.687,0.306 -0.18,0.187 -0.281,0.437 -0.281,0.697 0,0.26 0.101,0.51 0.281,0.697 0.181,0.187 0.427,0.296 0.687,0.305 z"
     fill="#616161"
     id="path190" />
  <path
     d="m 150.45655,152.81983 c 0.26,-0.009 0.506,-0.118 0.687,-0.305 0.18,-0.187 0.281,-0.437 0.281,-0.697 0,-0.26 -0.101,-0.51 -0.281,-0.697 -0.181,-0.187 -0.427,-0.297 -0.687,-0.306 -0.26,0.009 -0.506,0.119 -0.687,0.306 -0.18,0.187 -0.281,0.437 -0.281,0.697 0,0.26 0.101,0.51 0.281,0.697 0.181,0.187 0.427,0.296 0.687,0.305 z"
     fill="#616161"
     id="path192" />
  <path
     d="m 204.54655,152.81983 c 0.26,-0.009 0.506,-0.118 0.686,-0.305 0.181,-0.187 0.282,-0.437 0.282,-0.697 0,-0.26 -0.101,-0.51 -0.282,-0.697 -0.18,-0.187 -0.426,-0.297 -0.686,-0.306 -0.26,0.009 -0.506,0.119 -0.687,0.306 -0.181,0.187 -0.282,0.437 -0.282,0.697 0,0.26 0.101,0.51 0.282,0.697 0.181,0.187 0.427,0.296 0.687,0.305 z"
     fill="#616161"
     id="path194" />
</svg>
